<svg xmlns="http://www.w3.org/2000/svg" viewBox="0 0 100 100"><path d="M71.64,39.8C66.38,16.55,55.39,10.37,52.59,6a51.14,51.14,0,0,1-3.06-6c-.15,2.06-.42,3.37-2.17,4.93C43.83,8.07,28.87,20.27,27.61,46.67c-1.17,24.62,18.1,39.81,20.64,41.38,2,1,4.35,0,5.51-.87,9.29-6.37,22-23.37,17.89-47.38" style="fill:#808d9e"/><path d="M50.33,74.94c-.49,6.09-.83,9.63-2.06,13.11,0,0,.8,5.8,1.37,12h2a112.3,112.3,0,0,1,2.19-12.87C51.24,85.85,50.43,80.28,50.33,74.94Z" style="fill:#b8c4c2"/><path d="M53.84,87.14h0c-2.63-1.22-3.39-6.91-3.51-12.2a250.52,250.52,0,0,0,.57-26.28C50.76,44.07,51,6.08,49.77.52A46.31,46.31,0,0,0,52.59,6c2.8,4.38,13.79,10.56,19,33.81C75.75,63.77,63.12,80.72,53.84,87.14Z" style="fill:#a6afbb"/></svg>