<svg xmlns="http://www.w3.org/2000/svg" xmlns:xlink="http://www.w3.org/1999/xlink" viewBox="0 0 100 100"><defs><clipPath id="a"><path d="M52.37.63a4.75,4.75,0,0,0-4.73,0L8.44,23.25a4.75,4.75,0,0,0-2.37,4.1V72.63a4.75,4.75,0,0,0,2.37,4.1l39.2,22.64a4.75,4.75,0,0,0,4.73,0L91.56,76.73a4.75,4.75,0,0,0,2.37-4.1V27.35a4.75,4.75,0,0,0-2.37-4.1Z" style="fill:#6d7a8c;clip-rule:evenodd"/></clipPath><linearGradient id="b" x1="4.69" y1="75.85" x2="95.31" y2="75.85" gradientUnits="userSpaceOnUse"><stop offset="0.09" stop-color="#6abf4b"/><stop offset="0.29" stop-color="#63b649"/><stop offset="0.6" stop-color="#529f44"/><stop offset="0.86" stop-color="#3f873f"/></linearGradient><linearGradient id="c" x1="4.69" y1="87.55" x2="95.31" y2="87.55" xlink:href="#b"/><linearGradient id="d" x1="108.52" y1="15.34" x2="52.62" y2="129.36" gradientUnits="userSpaceOnUse"><stop offset="0" stop-color="#3f873f"/><stop offset="0.33" stop-color="#3f8b3d"/><stop offset="0.64" stop-color="#3e9637"/><stop offset="0.93" stop-color="#3da92e"/><stop offset="1" stop-color="#3dae2b"/></linearGradient></defs><path d="M52.37.63a4.75,4.75,0,0,0-4.73,0L8.44,23.25a4.75,4.75,0,0,0-2.37,4.1V72.63a4.75,4.75,0,0,0,2.37,4.1l39.2,22.64a4.75,4.75,0,0,0,4.73,0L91.56,76.73a4.75,4.75,0,0,0,2.37-4.1V27.35a4.75,4.75,0,0,0-2.37-4.1Z" style="fill:#6d7a8c;fill-rule:evenodd"/><g style="clip-path:url(#a)"><path d="M47.56.63,8.28,23.25a4.89,4.89,0,0,0-2.53,4.1V72.63a4.54,4.54,0,0,0,1.22,3L51.1.14A4.81,4.81,0,0,0,47.56.63Z" style="fill:none"/><path d="M51.32,99.82a4.55,4.55,0,0,0,1.1-.45L91.66,76.73a4.84,4.84,0,0,0,2.46-4.1V27.35a4.69,4.69,0,0,0-1.43-3.29Z" style="fill:none"/><path d="M91.64,23.25,52.33.63A5,5,0,0,0,51.1.14L7,75.64a5.33,5.33,0,0,0,1.32,1.09L47.66,99.37a4.79,4.79,0,0,0,3.66.45L92.69,24.06A5.54,5.54,0,0,0,91.64,23.25Z" style="fill:#808d9e"/><path d="M94.12,72.63V27.35a4.86,4.86,0,0,0-2.48-4.1L52.33.63A4.72,4.72,0,0,0,50.89.1L94,73.72A4.46,4.46,0,0,0,94.12,72.63Z" style="fill:none"/><path d="M8.28,23.25a4.89,4.89,0,0,0-2.53,4.1V72.63a4.9,4.9,0,0,0,2.54,4.1L47.66,99.37a4.81,4.81,0,0,0,3,.58L8.51,23.12Z" style="fill:none"/><path d="M91.66,76.73a5,5,0,0,0,2.32-3L50.89.1a4.84,4.84,0,0,0-3.33.53L8.51,23.12,50.69,100a4.72,4.72,0,0,0,1.73-.58Z" style="fill:#a6afbb"/><polygon points="95.31 76 95.05 75.56 95.05 76.15 95.31 76" style="fill:url(#b)"/><path d="M91.66,76.73,52.42,99.37a4.72,4.72,0,0,1-1.73.58l.78,1.43L95.05,76.15v-.59L94,73.72A5,5,0,0,1,91.66,76.73Z" style="fill:url(#c)"/><path d="M91.66,76.73,52.42,99.37a4.72,4.72,0,0,1-1.73.58l.78,1.43L95.05,76.15v-.59L94,73.72A5,5,0,0,1,91.66,76.73Z" style="fill:url(#d)"/></g></svg>