<?xml version="1.0" standalone="no"?>
<!DOCTYPE svg PUBLIC "-//W3C//DTD SVG 20010904//EN"
 "http://www.w3.org/TR/2001/REC-SVG-20010904/DTD/svg10.dtd">
<svg version="1.0" xmlns="http://www.w3.org/2000/svg"
 width="207.000000pt" height="199.000000pt" viewBox="0 0 207.000000 199.000000"
 preserveAspectRatio="xMidYMid meet">

<g transform="translate(0.000000,199.000000) scale(0.100000,-0.100000)"
fill="#000000" stroke="none">
<path d="M745 1556 c-134 -45 -257 -95 -271 -109 -8 -9 -14 -166 -19 -537 -7
-560 -7 -562 -59 -609 -28 -27 -34 -49 -13 -57 7 -2 71 20 143 49 215 90 216
91 165 144 -26 28 -30 39 -36 125 -4 52 -5 141 -3 198 l3 104 37 8 c20 4 56 4
80 0 l43 -8 3 -249 c3 -272 1 -261 65 -307 33 -23 40 -21 144 40 37 22 63 44
63 54 0 9 -15 28 -32 42 l-33 25 -3 199 -3 199 35 21 c46 27 46 49 1 58 l-35
6 0 235 c0 255 0 257 -62 336 -30 37 -75 67 -100 67 -7 -1 -58 -16 -113 -34z
m23 -132 c44 -30 47 -48 47 -266 l0 -207 -39 -7 c-21 -3 -54 -13 -73 -20 -19
-8 -38 -12 -43 -9 -6 4 -10 106 -10 250 l0 244 28 15 c35 20 62 20 90 0z"/>
<path d="M1221 1555 c-105 -57 -121 -79 -76 -109 50 -33 50 -30 55 -536 l5
-475 29 -53 c34 -61 72 -92 111 -92 62 0 353 105 389 140 18 18 19 44 23 507
3 301 9 501 15 522 6 19 26 50 45 68 35 35 36 53 3 53 -20 0 -172 -59 -272
-105 -67 -31 -72 -47 -25 -86 l32 -27 3 -460 3 -461 -30 -16 c-44 -22 -74 -19
-103 12 l-26 28 -9 525 c-6 385 -12 531 -21 547 -12 21 -60 53 -79 53 -4 0
-37 -16 -72 -35z"/>
</g>
</svg>
