<?xml version="1.0" standalone="no"?>
<!DOCTYPE svg PUBLIC "-//W3C//DTD SVG 20010904//EN"
 "http://www.w3.org/TR/2001/REC-SVG-20010904/DTD/svg10.dtd">
<svg version="1.0" xmlns="http://www.w3.org/2000/svg"
 width="380.000000pt" height="380.000000pt" viewBox="0 0 380.000000 380.000000"
 preserveAspectRatio="xMidYMid meet">

<g transform="translate(0.000000,380.000000) scale(0.100000,-0.100000)"
fill="#000000" stroke="none">
<path d="M2523 2668 c-37 -42 -266 -340 -388 -507 -66 -90 -124 -163 -129
-163 -4 0 -61 74 -125 164 -96 135 -121 164 -144 166 -15 2 -27 1 -27 -2 0 -4
59 -87 130 -186 72 -99 130 -184 130 -190 0 -10 -208 -304 -257 -363 -29 -36
-29 -47 1 -47 20 0 48 33 158 184 73 101 135 183 138 181 3 -2 64 -85 135
-184 103 -145 134 -181 152 -181 13 0 23 5 23 10 0 6 -53 83 -118 173 -64 89
-128 176 -140 194 l-23 32 212 308 c117 169 232 336 256 371 45 65 50 77 16
40z"/>
<path d="M472 1938 l3 -393 22 -3 23 -3 2 363 3 363 46 -65 c25 -36 95 -137
154 -225 225 -333 283 -415 423 -602 79 -106 145 -193 147 -193 3 0 -131 204
-297 453 -165 248 -338 507 -382 574 -76 115 -83 123 -114 123 l-32 0 2 -392z"/>
<path d="M1132 1938 l3 -393 263 -3 262 -2 0 25 0 25 -240 0 -240 0 0 170 0
170 222 2 c203 3 223 5 226 21 3 16 -13 17 -222 17 l-226 0 0 160 0 160 241 0
c224 0 240 1 237 18 -3 16 -25 17 -266 20 l-262 2 2 -392z"/>
<path d="M2350 2310 c0 -18 8 -20 138 -22 l137 -3 3 -373 2 -373 23 3 22 3 3
373 2 372 135 0 c128 0 135 1 135 20 0 20 -7 20 -300 20 -292 0 -300 -1 -300
-20z"/>
<path d="M3070 1701 c0 -75 -14 -97 -45 -71 -22 18 -38 8 -22 -14 18 -24 66
-24 84 0 18 24 14 145 -4 152 -10 3 -13 -15 -13 -67z"/>
<path d="M3152 1758 c-7 -7 -12 -24 -12 -39 0 -26 8 -32 73 -53 9 -3 17 -12
17 -21 0 -24 -30 -30 -61 -12 -32 18 -47 7 -23 -17 20 -21 78 -20 99 0 9 9 15
26 13 37 -3 19 -17 29 -77 57 -25 11 -23 29 4 36 17 4 32 1 44 -10 24 -21 38
-4 15 18 -18 19 -75 21 -92 4z"/>
<path d="M2930 1615 c0 -8 7 -15 15 -15 8 0 15 7 15 15 0 8 -7 15 -15 15 -8 0
-15 -7 -15 -15z"/>
</g>
</svg>
