<?xml version="1.0" standalone="no"?>
<!DOCTYPE svg PUBLIC "-//W3C//DTD SVG 20010904//EN"
 "http://www.w3.org/TR/2001/REC-SVG-20010904/DTD/svg10.dtd">
<svg version="1.0" xmlns="http://www.w3.org/2000/svg"
 width="319.000000pt" height="193.000000pt" viewBox="0 0 319.000000 193.000000"
 preserveAspectRatio="xMidYMid meet">

<g transform="translate(0.000000,193.000000) scale(0.100000,-0.100000)"
fill="#000000" stroke="none">
<path d="M1631 1492 c-18 -33 -371 -793 -371 -798 0 -2 55 -3 121 -2 l122 3
67 148 c37 81 69 149 71 152 5 4 139 -284 139 -297 0 -4 -63 -9 -140 -10
l-141 -3 -43 -95 -44 -95 225 -3 c124 -1 228 0 231 3 3 2 -12 42 -33 87 -20
46 -39 88 -42 95 -4 9 26 13 115 15 l120 3 -188 404 c-104 222 -191 405 -194
408 -2 3 -9 -4 -15 -15z"/>
<path d="M1106 372 c-27 -59 -59 -131 -72 -160 l-24 -53 127 3 127 3 68 150
c37 83 67 153 67 158 1 4 -54 7 -121 7 l-123 0 -49 -108z"/>
<path d="M1953 320 l72 -160 123 0 c67 0 122 4 122 9 0 5 -31 76 -69 158 l-69
148 -125 3 -126 3 72 -161z"/>
</g>
</svg>
