<?xml version="1.0" standalone="no"?>
<!DOCTYPE svg PUBLIC "-//W3C//DTD SVG 20010904//EN"
 "http://www.w3.org/TR/2001/REC-SVG-20010904/DTD/svg10.dtd">
<svg version="1.0" xmlns="http://www.w3.org/2000/svg"
 width="500.000000pt" height="500.000000pt" viewBox="0 0 500.000000 500.000000"
 preserveAspectRatio="xMidYMid meet">

<g transform="translate(0.000000,500.000000) scale(0.100000,-0.100000)"
fill="#000000" stroke="none">
<path d="M1618 4161 c-52 -17 -98 -53 -124 -97 -23 -39 -26 -53 -22 -118 3
-65 7 -79 34 -113 45 -56 98 -83 164 -83 63 0 100 8 100 22 0 12 -129 192
-141 196 -5 2 -9 -21 -9 -52 0 -31 -4 -56 -10 -56 -13 0 -13 167 -1 175 5 3
48 -54 96 -126 l86 -131 31 28 c47 45 58 76 58 157 0 66 -3 78 -29 114 -16 22
-44 50 -63 61 -39 24 -129 36 -170 23z m132 -193 c0 -51 -3 -68 -10 -58 -13
20 -13 130 0 130 6 0 10 -31 10 -72z"/>
<path d="M1492 3403 l3 -178 180 0 180 0 3 178 2 177 -185 0 -185 0 2 -177z
m216 0 c-2 -10 -13 -19 -26 -21 -20 -3 -22 -9 -22 -67 0 -66 -10 -85 -35 -65
-10 8 -15 32 -15 71 0 52 -2 59 -20 59 -13 0 -20 7 -20 20 0 18 7 20 71 20 62
0 70 -2 67 -17z m107 -8 c0 -16 -6 -20 -30 -18 -27 2 -28 2 -11 -10 35 -22 66
-56 66 -72 0 -23 -37 -55 -64 -55 -13 0 -34 9 -47 19 -20 16 -22 22 -11 33 10
10 16 10 32 0 11 -6 24 -12 30 -12 21 0 9 19 -25 39 -27 16 -35 27 -35 49 0
38 18 53 60 50 27 -2 35 -7 35 -23z"/>
<path d="M1576 2999 c-65 -16 -69 -23 -64 -114 5 -94 27 -144 87 -198 57 -51
83 -56 131 -22 81 56 115 137 108 255 -3 49 -6 56 -32 69 -36 17 -178 24 -230
10z m154 -119 c14 -51 13 -62 -15 -114 -14 -26 -25 -54 -25 -62 0 -7 -7 -14
-15 -14 -8 0 -15 7 -15 16 0 9 -9 29 -21 45 -40 56 -34 134 13 195 l22 27 23
-29 c13 -16 28 -45 33 -64z"/>
</g>
</svg>
